<svg version="1.1" viewBox="0.0 0.0 192.0 192.0" fill="none" stroke="none" stroke-linecap="square" stroke-miterlimit="10" xmlns:xlink="http://www.w3.org/1999/xlink" xmlns="http://www.w3.org/2000/svg"><clipPath id="p.0"><path d="m0 0l192.0 0l0 192.0l-192.0 0l0 -192.0z" clip-rule="nonzero"/></clipPath><g clip-path="url(#p.0)"><path fill="#000000" fill-opacity="0.0" d="m0 0l192.0 0l0 192.0l-192.0 0z" fill-rule="evenodd"/><path fill="#43b583" d="m0 96.0l0 0c0 -53.019337 42.980663 -96.0 96.0 -96.0l0 0c25.460785 0 49.878754 10.114257 67.88225 28.117748c18.003494 18.003494 28.117752 42.421467 28.117752 67.88225l0 0c0 53.019333 -42.980667 96.0 -96.0 96.0l0 0c-53.019337 0 -96.0 -42.980667 -96.0 -96.0z" fill-rule="evenodd"/><path fill="#999999" d="m71.024864 41.32546l-17.49152 32.440945l-17.343124 -32.440945z" fill-rule="evenodd"/><path fill="#999999" d="m114.42603 41.32546l-17.491516 32.440945l-17.343124 -32.440945z" fill-rule="evenodd"/><path fill="#999999" d="m157.82939 41.32546l-17.491516 32.440945l-17.343124 -32.440945z" fill-rule="evenodd"/><path fill="#999999" d="m51.085236 79.20735l-17.491524 32.44094l-17.343124 -32.44094z" fill-rule="evenodd"/><path fill="#999999" d="m92.64691 79.20735l-17.491516 32.44094l-17.343128 -32.44094z" fill-rule="evenodd"/><path fill="#999999" d="m136.12985 79.20735l-17.491516 32.44094l-17.343132 -32.44094z" fill-rule="evenodd"/><path fill="#999999" d="m178.84377 79.20735l-17.491516 32.44094l-17.343124 -32.44094z" fill-rule="evenodd"/><path fill="#999999" d="m72.49993 120.54855l-17.49152 32.44095l-17.343124 -32.44095z" fill-rule="evenodd"/><path fill="#999999" d="m114.42907 120.54855l-17.491524 32.44095l-17.343124 -32.44095z" fill-rule="evenodd"/><path fill="#999999" d="m157.83064 120.54855l-17.491516 32.44095l-17.343132 -32.44095z" fill-rule="evenodd"/><path fill="#ffffff" d="m69.478935 40.16798l-17.49152 32.440945l-17.343128 -32.440945z" fill-rule="evenodd"/><path fill="#ffffff" d="m112.880104 40.16798l-17.491524 32.440945l-17.343124 -32.440945z" fill-rule="evenodd"/><path fill="#ffffff" d="m156.28346 40.16798l-17.491516 32.440945l-17.343124 -32.440945z" fill-rule="evenodd"/><path fill="#ffffff" d="m49.539303 78.049866l-17.49152 32.44095l-17.343126 -32.44095z" fill-rule="evenodd"/><path fill="#ffffff" d="m91.10098 78.049866l-17.491524 32.44095l-17.343124 -32.44095z" fill-rule="evenodd"/><path fill="#ffffff" d="m134.58392 78.049866l-17.491524 32.44095l-17.343124 -32.44095z" fill-rule="evenodd"/><path fill="#ffffff" d="m177.29784 78.049866l-17.491531 32.44095l-17.343124 -32.44095z" fill-rule="evenodd"/><path fill="#ffffff" d="m70.954 119.391075l-17.491524 32.44094l-17.343124 -32.44094z" fill-rule="evenodd"/><path fill="#ffffff" d="m112.88313 119.391075l-17.491516 32.44094l-17.343132 -32.44094z" fill-rule="evenodd"/><path fill="#ffffff" d="m156.28471 119.391075l-17.491531 32.44094l-17.343117 -32.44094z" fill-rule="evenodd"/></g></svg>