<?xml version="1.0" standalone="no"?>
<!DOCTYPE svg PUBLIC "-//W3C//DTD SVG 20010904//EN"
 "http://www.w3.org/TR/2001/REC-SVG-20010904/DTD/svg10.dtd">
<svg version="1.0" xmlns="http://www.w3.org/2000/svg"
 width="1920.000000pt" height="1920.000000pt" viewBox="0 0 1920.000000 1920.000000"
 preserveAspectRatio="xMidYMid meet">
<metadata>
Created by potrace 1.11, written by Peter Selinger 2001-2013
</metadata>
<g transform="translate(0.000000,1920.000000) scale(0.100000,-0.100000)"
fill="#000000" stroke="none">
<path d="M9250 19190 c-2424 -80 -4716 -1076 -6439 -2800 -1507 -1507 -2464
-3459 -2730 -5565 -54 -431 -73 -738 -73 -1215 -1 -475 17 -765 73 -1215 265
-2109 1224 -4061 2734 -5570 1510 -1509 3449 -2460 5550 -2725 426 -53 729
-71 1200 -72 469 -1 762 17 1210 73 2326 290 4479 1446 6025 3234 1776 2054
2593 4749 2260 7460 -288 2343 -1453 4525 -3240 6069 -1545 1336 -3456 2135
-5505 2301 -166 14 -737 37 -820 33 -16 -1 -127 -5 -245 -8z m1090 -6840 l0
-4490 2185 0 2185 0 -2 -747 -3 -748 -2182 -3 -2183 -2 0 -2095 0 -2095 -770
0 -770 0 0 2095 0 2095 -1792 3 c-986 1 -1965 2 -2175 1 l-383 0 0 748 0 748
2175 0 2175 0 0 4490 0 4490 770 0 770 0 0 -4490z"/>
</g>
</svg>
