<svg version="1" xmlns="http://www.w3.org/2000/svg" width="682.667" height="682.667" viewBox="0 0 512.000000 512.000000"><path d="M231.5 1.1C141.7 10.4 64.9 63.6 26 143.5c-11.7 24.1-19.5 49.1-23.6 76-2.6 16.9-2.6 54.1 0 71 4.2 27.3 11.9 52.1 24.1 77 30.5 62.2 85 109 152 130.4 26.2 8.4 47.4 11.6 77.5 11.6s51.3-3.2 77.5-11.6c85.2-27.2 149.4-95.4 170.8-181.4 5.8-23.2 7.1-34.9 7.1-61.5s-1.3-38.3-7.1-61.5c-4.6-18.6-9.9-32.8-18.8-51-30.4-62.1-85-109-151.6-130.3-25-8-44.8-11.2-72.9-11.7-11.3-.2-24.5 0-29.5.6zM283.2 108l.3 87 57.4-42.5c31.6-23.4 57.7-42.5 58.2-42.5 1.4 0 34.1 45.2 33.2 45.9-.6.3-34.4 25.3-75.1 55.5L283 266.3V483h-57V268.5l-75.7-56c-41.6-30.8-76.1-56.3-76.6-56.6-1.3-.9 32.3-46.1 33.8-45.5.7.2 27.6 19.9 59.6 43.6l58.4 43.2.3-88.1.2-88.1h57l.2 87z"/></svg>