<svg version="1.1" viewBox="0.0 0.0 192.0 192.0" fill="none" stroke="none" stroke-linecap="square" stroke-miterlimit="10" xmlns:xlink="http://www.w3.org/1999/xlink" xmlns="http://www.w3.org/2000/svg"><clipPath id="p.0"><path d="m0 0l192.0 0l0 192.0l-192.0 0l0 -192.0z" clip-rule="nonzero"/></clipPath><g clip-path="url(#p.0)"><path fill="#000000" fill-opacity="0.0" d="m0 0l192.0 0l0 192.0l-192.0 0z" fill-rule="evenodd"/><path fill="#43b583" d="m0 96.0l0 0c0 -53.019337 42.980663 -96.0 96.0 -96.0l0 0c25.460785 0 49.878754 10.114257 67.88225 28.117748c18.003494 18.003494 28.117752 42.421467 28.117752 67.88225l0 0c0 53.019333 -42.980667 96.0 -96.0 96.0l0 0c-53.019337 0 -96.0 -42.980667 -96.0 -96.0z" fill-rule="evenodd"/><path fill="#ffffff" d="m44.56693 116.81628l102.86615 0l0 14.960625l-102.86615 0z" fill-rule="evenodd"/><path fill="#ffffff" d="m88.267715 23.64567l15.464569 0l0 146.74016l-15.464569 0z" fill-rule="evenodd"/></g></svg>