<svg version="1.1" viewBox="0.0 0.0 64.0 64.0" fill="none" stroke="none" stroke-linecap="square" stroke-miterlimit="10" xmlns:xlink="http://www.w3.org/1999/xlink" xmlns="http://www.w3.org/2000/svg"><clipPath id="p.0"><path d="m0 0l64.0 0l0 64.0l-64.0 0l0 -64.0z" clip-rule="nonzero"/></clipPath><g clip-path="url(#p.0)"><path fill="#000000" fill-opacity="0.0" d="m0 0l64.0 0l0 64.0l-64.0 0z" fill-rule="evenodd"/><path fill="#000000" fill-opacity="0.0" d="m29.357384 51.83595c-2.9984913 -0.62459564 -10.436325 -2.59441 -14.486257 -4.9004593c-4.0499315 -2.3060455 -7.671496 -5.909149 -9.8133335 -8.935814c-2.1418374 -3.0266685 -4.011216 -7.4946747 -3.0376904 -9.224184c0.97352576 -1.7295094 5.8024387 -1.6813488 8.878845 -1.152874c3.0764065 0.5284748 6.931553 2.7863598 9.57959 4.3237247c2.6480389 1.537365 4.5172577 2.9307404 6.3086414 4.9004593c1.7913837 1.9697151 3.4271812 4.6117935 4.439663 6.917839c1.0124836 2.3060455 1.9468098 5.5732193 1.6352329 6.918434c-0.31157303 1.3452187 -0.5061989 1.7774734 -3.504692 1.152874z" fill-rule="evenodd"/><path stroke="#ffffff" stroke-width="2.0" stroke-linejoin="round" stroke-linecap="butt" d="m29.357384 51.83595c-2.9984913 -0.62459564 -10.436325 -2.59441 -14.486257 -4.9004593c-4.0499315 -2.3060455 -7.671496 -5.909149 -9.8133335 -8.935814c-2.1418374 -3.0266685 -4.011216 -7.4946747 -3.0376904 -9.224184c0.97352576 -1.7295094 5.8024387 -1.6813488 8.878845 -1.152874c3.0764065 0.5284748 6.931553 2.7863598 9.57959 4.3237247c2.6480389 1.537365 4.5172577 2.9307404 6.3086414 4.9004593c1.7913837 1.9697151 3.4271812 4.6117935 4.439663 6.917839c1.0124836 2.3060455 1.9468098 5.5732193 1.6352329 6.918434c-0.31157303 1.3452187 -0.5061989 1.7774734 -3.504692 1.152874z" fill-rule="evenodd"/><path fill="#000000" fill-opacity="0.0" d="m29.288801 50.221092c-1.2997513 -2.8405228 -3.5252686 -11.874756 -4.345888 -16.24997c-0.8206177 -4.37521 -1.1025505 -6.695835 -0.57782745 -10.001301c0.52472305 -3.3054638 2.4981346 -7.591261 3.7261696 -9.8314905c1.228035 -2.2402296 2.2387161 -4.4004087 3.642044 -3.60989c1.403328 0.79051876 3.68787 5.0828543 4.7779274 8.3530035c1.0900574 3.2701492 1.5985909 7.7944946 1.762413 11.267889c0.16382217 3.4733925 -0.10479355 6.512722 -0.7794838 9.572475c-0.67469406 3.0597534 -2.476551 6.9039764 -3.268673 8.786049c-0.7921257 1.8820724 -0.6612892 2.220852 -1.4840698 2.5063934c-0.8227787 0.28553772 -2.1528625 2.0473595 -3.452612 -0.7931595z" fill-rule="evenodd"/><path stroke="#ffffff" stroke-width="2.0" stroke-linejoin="round" stroke-linecap="butt" d="m29.288801 50.221092c-1.2997513 -2.8405228 -3.5252686 -11.874756 -4.345888 -16.24997c-0.8206177 -4.37521 -1.1025505 -6.695835 -0.57782745 -10.001301c0.52472305 -3.3054638 2.4981346 -7.591261 3.7261696 -9.8314905c1.228035 -2.2402296 2.2387161 -4.4004087 3.642044 -3.60989c1.403328 0.79051876 3.68787 5.0828543 4.7779274 8.3530035c1.0900574 3.2701492 1.5985909 7.7944946 1.762413 11.267889c0.16382217 3.4733925 -0.10479355 6.512722 -0.7794838 9.572475c-0.67469406 3.0597534 -2.476551 6.9039764 -3.268673 8.786049c-0.7921257 1.8820724 -0.6612892 2.220852 -1.4840698 2.5063934c-0.8227787 0.28553772 -2.1528625 2.0473595 -3.452612 -0.7931595z" fill-rule="evenodd"/><path fill="#000000" fill-opacity="0.0" d="m29.475357 50.170044c-2.3787937 -2.3360443 -8.114592 -8.49873 -10.7541485 -12.934036c-2.6395588 -4.4353065 -4.395756 -9.7503395 -5.0831966 -13.677792c-0.6874409 -3.927452 -0.57137394 -8.953966 0.95855045 -9.886917c1.5299253 -0.932951 5.7363424 1.9908066 8.220998 4.2892094c2.4846554 2.2984009 4.972658 6.5753136 6.6869373 9.501204c1.7142792 2.92589 2.8035393 5.26099 3.5987358 8.054134c0.7951927 2.7931404 1.1906357 6.081974 1.1724243 8.704716c-0.018211365 2.6227417 -0.48163605 6.040146 -1.2816849 7.031723c-0.8000488 0.99158096 -1.1398201 1.2538071 -3.5186157 -1.082241z" fill-rule="evenodd"/><path stroke="#ffffff" stroke-width="2.0" stroke-linejoin="round" stroke-linecap="butt" d="m29.475357 50.170044c-2.3787937 -2.3360443 -8.114592 -8.49873 -10.7541485 -12.934036c-2.6395588 -4.4353065 -4.395756 -9.7503395 -5.0831966 -13.677792c-0.6874409 -3.927452 -0.57137394 -8.953966 0.95855045 -9.886917c1.5299253 -0.932951 5.7363424 1.9908066 8.220998 4.2892094c2.4846554 2.2984009 4.972658 6.5753136 6.6869373 9.501204c1.7142792 2.92589 2.8035393 5.26099 3.5987358 8.054134c0.7951927 2.7931404 1.1906357 6.081974 1.1724243 8.704716c-0.018211365 2.6227417 -0.48163605 6.040146 -1.2816849 7.031723c-0.8000488 0.99158096 -1.1398201 1.2538071 -3.5186157 -1.082241z" fill-rule="evenodd"/><path fill="#000000" fill-opacity="0.0" d="m33.727955 50.174294c2.3790703 -2.3360443 8.115734 -8.4987335 10.7563095 -12.934036c2.6405716 -4.4353065 4.3983574 -9.750341 5.0871315 -13.677792c0.6887741 -3.927452 0.5746765 -8.953966 -0.95448685 -9.886918c-1.5291634 -0.932951 -5.7355995 1.9908066 -8.2204895 4.2892084c-2.48489 2.2984028 -4.9738846 6.5753155 -6.688843 9.501204c-1.7149544 2.92589 -2.8048325 5.260992 -3.600893 8.054136c-0.79606056 2.7931404 -1.192667 6.081974 -1.1754723 8.704716c0.017194748 2.622738 0.47917938 6.040142 1.2786369 7.031723c0.79945755 0.99158096 1.1390381 1.2538071 3.5181065 -1.082241z" fill-rule="evenodd"/><path stroke="#ffffff" stroke-width="2.0" stroke-linejoin="round" stroke-linecap="butt" d="m33.727955 50.174294c2.3790703 -2.3360443 8.115734 -8.4987335 10.7563095 -12.934036c2.6405716 -4.4353065 4.3983574 -9.750341 5.0871315 -13.677792c0.6887741 -3.927452 0.5746765 -8.953966 -0.95448685 -9.886918c-1.5291634 -0.932951 -5.7355995 1.9908066 -8.2204895 4.2892084c-2.48489 2.2984028 -4.9738846 6.5753155 -6.688843 9.501204c-1.7149544 2.92589 -2.8048325 5.260992 -3.600893 8.054136c-0.79606056 2.7931404 -1.192667 6.081974 -1.1754723 8.704716c0.017194748 2.622738 0.47917938 6.040142 1.2786369 7.031723c0.79945755 0.99158096 1.1390381 1.2538071 3.5181065 -1.082241z" fill-rule="evenodd"/><path fill="#000000" fill-opacity="0.0" d="m33.22511 52.09277c3.0269585 -0.35406113 10.561157 -1.6516914 14.73909 -3.5884666c4.1779327 -1.936779 8.00832 -5.205597 10.328506 -8.0322c2.3201866 -2.8265991 4.457062 -7.115162 3.5926132 -8.927399c-0.86444855 -1.8122387 -5.680565 -2.1972332 -8.779297 -1.9460278c-3.0987358 0.25120544 -7.079567 2.1574154 -9.81311 3.4532566c-2.7335434 1.2958412 -4.681984 2.5179176 -6.5881424 4.321785c-1.9061546 1.8038712 -3.6983986 4.2922745 -4.848789 6.5014343c-1.1503887 2.209156 -2.2817287 5.3839073 -2.0535412 6.7535095c0.22818947 1.3696022 0.39571 1.8181686 3.4226704 1.4641075z" fill-rule="evenodd"/><path stroke="#ffffff" stroke-width="2.0" stroke-linejoin="round" stroke-linecap="butt" d="m33.22511 52.09277c3.0269585 -0.35406113 10.561157 -1.6516914 14.73909 -3.5884666c4.1779327 -1.936779 8.00832 -5.205597 10.328506 -8.0322c2.3201866 -2.8265991 4.457062 -7.115162 3.5926132 -8.927399c-0.86444855 -1.8122387 -5.680565 -2.1972332 -8.779297 -1.9460278c-3.0987358 0.25120544 -7.079567 2.1574154 -9.81311 3.4532566c-2.7335434 1.2958412 -4.681984 2.5179176 -6.5881424 4.321785c-1.9061546 1.8038712 -3.6983986 4.2922745 -4.848789 6.5014343c-1.1503887 2.209156 -2.2817287 5.3839073 -2.0535412 6.7535095c0.22818947 1.3696022 0.39571 1.8181686 3.4226704 1.4641075z" fill-rule="evenodd"/></g></svg>